# xmcd
#
# Track frame offsets:
#  150
#  14547
#  33171
#  49339
#  64022
#  74699
#  90838
#  103385
#  113594
#  133312
#  146172
#
# Disc length: 2176 seconds
#
# Revision: 0
# Processed by: cddbd v1.5.2PL0 Copyright (c) Steve Scherf et al.
# Submitted via: AltoMP3_Maker 3.0
#
DISCID=a1087e0b
DTITLE=Abbie Gardner - Honey on My Grave
DYEAR=1900
DGENRE=
TTITLE0=Honey on My Grave
TTITLE1=I'm a Fool
TTITLE2=Ain't Misbehavin'
TTITLE3=One Love
TTITLE4=Caffeine
TTITLE5=Sweet Georgia Pines
TTITLE6=Ohio
TTITLE7=Hit the Road Jack
TTITLE8=Breathe Again
TTITLE9=Dreams
TTITLE10=You Got to Move (w. Pat Wictor)
EXTD=
EXTT0=
EXTT1=
EXTT2=
EXTT3=
EXTT4=
EXTT5=
EXTT6=
EXTT7=
EXTT8=
EXTT9=
EXTT10=
PLAYORDER=
